<svg width="512" height="121" viewBox="0 0 512 121" fill="none" xmlns="http://www.w3.org/2000/svg">
<path d="M11.776 93.824V22.528C11.776 15.36 13.7387 9.89867 17.664 6.144C21.6747 2.304 27.648 0.384003 35.584 0.384003C37.376 0.384003 38.8693 0.469335 40.064 0.639999C41.2587 0.810669 42.4107 1.06667 43.52 1.408V13.952C42.9227 13.696 42.1547 13.5253 41.216 13.44C40.2773 13.2693 39.2107 13.184 38.016 13.184C34.6027 13.184 32.0427 14.0373 30.336 15.744C28.7147 17.3653 27.904 19.7547 27.904 22.912V93.824H11.776ZM1.90735e-06 41.216V28.544H42.112V41.216H1.90735e-06ZM49.441 93.824V28.544H65.569V93.824H49.441ZM48.673 17.792V0H66.209V17.792H48.673ZM78.851 93.824V1.664H94.979V93.824H78.851ZM137.573 95.104C130.661 95.104 124.602 93.6533 119.397 90.752C114.277 87.8507 110.266 83.84 107.365 78.72C104.549 73.6 103.141 67.712 103.141 61.056C103.141 54.4 104.549 48.5547 107.365 43.52C110.266 38.4 114.277 34.432 119.397 31.616C124.517 28.7147 130.49 27.264 137.317 27.264C143.802 27.264 149.434 28.6293 154.213 31.36C158.992 34.0053 162.704 37.76 165.349 42.624C167.994 47.488 169.317 53.1627 169.317 59.648C169.317 60.8427 169.274 61.952 169.189 62.976C169.104 64 168.976 65.024 168.805 66.048H113.125V54.784H156.389L153.061 57.856C153.061 51.712 151.653 47.104 148.837 44.032C146.021 40.96 142.096 39.424 137.061 39.424C131.6 39.424 127.248 41.3013 124.005 45.056C120.848 48.8107 119.269 54.2293 119.269 61.312C119.269 68.3093 120.848 73.6853 124.005 77.44C127.248 81.1093 131.813 82.944 137.701 82.944C141.114 82.944 144.101 82.304 146.661 81.024C149.221 79.744 151.098 77.7813 152.293 75.136H167.525C165.392 81.28 161.765 86.144 156.645 89.728C151.61 93.312 145.253 95.104 137.573 95.104ZM211.21 95.616C206.943 95.616 203.189 94.8053 199.946 93.184C196.789 91.5627 194.399 89.344 192.778 86.528C191.157 83.712 190.517 80.512 190.858 76.928H192.138L182.282 120.064H163.082L184.202 28.544H202.89L199.946 41.344L199.306 40.96C201.013 36.7787 203.829 33.536 207.754 31.232C211.765 28.928 216.458 27.776 221.834 27.776C229.429 27.776 235.445 30.08 239.882 34.688C244.319 39.296 246.538 45.8667 246.538 54.4C246.538 60.032 245.642 65.3227 243.85 70.272C242.058 75.2213 239.541 79.616 236.298 83.456C233.055 87.2107 229.301 90.1973 225.034 92.416C220.767 94.5493 216.159 95.616 211.21 95.616ZM208.01 79.616C210.741 79.616 213.215 78.976 215.434 77.696C217.738 76.416 219.701 74.7093 221.322 72.576C223.029 70.4427 224.309 68.0533 225.162 65.408C226.101 62.6773 226.57 59.904 226.57 57.088C226.57 52.48 225.375 48.896 222.986 46.336C220.682 43.776 217.653 42.496 213.898 42.496C211.679 42.496 209.589 42.9227 207.626 43.776C205.749 44.6293 204.042 45.7813 202.506 47.232C201.055 48.6827 199.775 50.3893 198.666 52.352C197.557 54.2293 196.703 56.2773 196.106 58.496C195.594 60.6293 195.338 62.8053 195.338 65.024C195.338 69.632 196.49 73.216 198.794 75.776C201.183 78.336 204.255 79.616 208.01 79.616ZM286.471 93.824C286.386 92.3733 286.428 90.624 286.599 88.576C286.855 86.528 287.282 84.096 287.879 81.28H287.623L294.535 50.56C295.047 48.4267 294.919 46.6773 294.151 45.312C293.468 43.8613 292.359 42.7947 290.823 42.112C289.287 41.4293 287.452 41.088 285.319 41.088C281.906 41.088 279.132 41.7707 276.999 43.136C274.951 44.416 273.671 45.9093 273.159 47.616H255.111C257.074 41.5573 260.828 36.6507 266.375 32.896C271.922 29.1413 278.748 27.264 286.855 27.264C293.084 27.264 298.375 28.288 302.727 30.336C307.164 32.2987 310.279 35.328 312.071 39.424C313.948 43.4347 314.162 48.512 312.711 54.656L306.439 82.048C306.098 83.7547 305.799 85.8453 305.543 88.32C305.287 90.7093 305.244 92.544 305.415 93.824H286.471ZM265.607 95.104C259.804 95.104 255.154 93.6107 251.655 90.624C248.242 87.6373 246.535 83.7973 246.535 79.104C246.535 73.984 247.858 69.76 250.503 66.432C253.234 63.104 256.988 60.5013 261.767 58.624C266.631 56.7467 272.306 55.4667 278.791 54.784L296.967 52.864L294.407 64L278.279 66.048C274.61 66.4747 271.623 67.4987 269.319 69.12C267.015 70.656 265.863 72.832 265.863 75.648C265.863 77.44 266.588 78.8053 268.039 79.744C269.49 80.5973 271.452 81.024 273.927 81.024C278.194 81.024 281.82 79.872 284.807 77.568C287.794 75.1787 289.586 72.6187 290.183 69.888L289.543 80.768C286.983 84.9493 283.783 88.4053 279.943 91.136C276.188 93.7813 271.41 95.104 265.607 95.104ZM346.07 95.104C340.011 95.104 334.635 93.8667 329.942 91.392C325.334 88.832 321.75 85.3333 319.19 80.896C316.63 76.3733 315.35 71.2107 315.35 65.408C315.35 61.1413 315.99 57.1307 317.27 53.376C318.635 49.536 320.513 46.0373 322.902 42.88C325.291 39.7227 328.107 36.992 331.35 34.688C334.593 32.2987 338.134 30.464 341.974 29.184C345.899 27.904 349.995 27.264 354.262 27.264C358.443 27.264 362.369 27.904 366.038 29.184C369.707 30.464 372.907 32.256 375.638 34.56C378.454 36.7787 380.63 39.3813 382.166 42.368C383.787 45.3547 384.598 48.5547 384.598 51.968H366.038C365.953 50.2613 365.398 48.6827 364.374 47.232C363.35 45.7813 361.942 44.6293 360.15 43.776C358.443 42.8373 356.395 42.368 354.006 42.368C351.873 42.368 349.867 42.752 347.99 43.52C346.113 44.288 344.406 45.3973 342.87 46.848C341.334 48.2987 339.969 50.0053 338.774 51.968C337.665 53.8453 336.811 55.936 336.214 58.24C335.617 60.544 335.318 62.9333 335.318 65.408C335.318 70.1013 336.385 73.728 338.518 76.288C340.651 78.7627 343.638 80 347.478 80C350.465 80 353.11 79.232 355.414 77.696C357.718 76.0747 359.809 73.6427 361.686 70.4H380.246C377.345 78.1653 372.865 84.224 366.806 88.576C360.833 92.928 353.921 95.104 346.07 95.104ZM380.953 93.824L402.201 1.664H421.401L400.153 93.824H380.953ZM424.729 93.824L403.481 59.904L435.353 28.544H459.417L422.297 62.848L420.761 56.832L445.593 93.824H424.729ZM476.559 95.488C470.415 95.488 465.039 94.592 460.431 92.8C455.823 90.9227 452.239 88.32 449.679 84.992C447.119 81.664 445.882 77.824 445.967 73.472H463.119C463.119 75.3493 463.674 76.9707 464.783 78.336C465.892 79.7013 467.514 80.768 469.647 81.536C471.78 82.2187 474.34 82.56 477.327 82.56C481.082 82.56 483.898 82.0053 485.775 80.896C487.738 79.7867 488.719 78.1653 488.719 76.032C488.719 74.5813 488.207 73.3867 487.183 72.448C486.244 71.5093 484.708 70.656 482.575 69.888L472.719 66.56C466.063 64.3413 461.327 61.8667 458.511 59.136C455.78 56.32 454.415 52.8213 454.415 48.64C454.415 44.288 455.61 40.5333 457.999 37.376C460.388 34.1333 463.716 31.6587 467.983 29.952C472.25 28.16 477.242 27.264 482.959 27.264C488.591 27.264 493.498 28.1173 497.679 29.824C501.946 31.4453 505.274 33.7493 507.663 36.736C510.052 39.6373 511.204 43.008 511.119 46.848H493.967C494.052 45.3973 493.626 44.16 492.687 43.136C491.748 42.112 490.383 41.344 488.591 40.832C486.799 40.32 484.623 40.064 482.063 40.064C478.564 40.064 475.962 40.5333 474.255 41.472C472.548 42.4107 471.695 43.8187 471.695 45.696C471.695 47.0613 472.25 48.1707 473.359 49.024C474.554 49.8773 476.644 50.816 479.631 51.84L490.511 55.552C495.631 57.2587 499.471 59.648 502.031 62.72C504.676 65.7067 505.999 69.376 505.999 73.728C505.999 78.08 504.762 81.92 502.287 85.248C499.812 88.4907 496.356 91.008 491.919 92.8C487.567 94.592 482.447 95.488 476.559 95.488Z" fill="black"/>
</svg>
