<svg width="600" height="385" viewBox="0 0 600 385" fill="none" xmlns="http://www.w3.org/2000/svg">
<path d="M347.885 300.235L416.158 4.1128H477.85L409.577 300.235H347.885ZM488.543 300.235L420.271 191.245L522.679 90.4817H600L480.729 200.705L475.793 181.375L555.582 300.235H488.543Z" fill="black"/>
<path d="M249.618 305.993C235.909 305.993 223.845 303.388 213.426 298.178C203.281 292.969 195.603 285.84 190.394 276.792C185.184 267.743 183.128 257.461 184.225 245.946H188.337L156.669 384.547H94.9768L162.838 90.4816H222.885L213.426 131.61L211.369 130.376C216.853 116.941 225.901 106.522 238.514 99.1185C251.4 91.7155 266.481 88.0139 283.754 88.0139C308.157 88.0139 327.487 95.417 341.745 110.223C356.003 125.029 363.131 146.142 363.131 173.56C363.131 191.657 360.253 208.656 354.495 224.559C348.737 240.462 340.648 254.582 330.229 266.921C319.81 278.985 307.746 288.582 294.036 295.711C280.327 302.565 265.521 305.993 249.618 305.993ZM239.336 254.582C248.11 254.582 256.062 252.526 263.19 248.413C270.593 244.3 276.9 238.817 282.109 231.962C287.593 225.107 291.706 217.43 294.448 208.93C297.464 200.156 298.972 191.245 298.972 182.197C298.972 167.391 295.133 155.875 287.456 147.65C280.053 139.424 270.319 135.311 258.255 135.311C251.126 135.311 244.409 136.682 238.102 139.424C232.07 142.166 226.586 145.867 221.651 150.529C216.99 155.19 212.877 160.673 209.313 166.98C205.748 173.012 203.006 179.592 201.087 186.721C199.442 193.576 198.619 200.568 198.619 207.697C198.619 222.503 202.321 234.018 209.724 242.244C217.401 250.47 227.272 254.582 239.336 254.582Z" fill="black"/>
<path d="M0 300.235L53.4664 68.6838C58.676 45.9263 68.2725 28.7896 82.256 17.2738C96.2396 5.75792 115.707 0 140.658 0C146.964 0 152.996 0.411275 158.754 1.23382C164.512 1.78221 170.544 3.01605 176.85 4.93535L166.157 51.41C163.964 50.5875 161.222 49.902 157.932 49.3536C154.916 48.8052 151.625 48.5311 148.061 48.5311C137.093 48.5311 129.005 50.9987 123.795 55.9341C118.86 60.8695 115.433 67.45 113.513 75.6756L61.692 300.235H0ZM2.46768 137.368L13.161 90.4816H152.585L141.892 137.368H2.46768Z" fill="black"/>
</svg>
